solid ascii
 facet normal 0 -0.998993 -0.0448647
  outer loop
   vertex 0.27 -0.0248994 -0.067241
   vertex 0.27 -0.025 -0.065
   vertex 0.17 -0.0248994 -0.067241
  endloop
 endfacet
 facet normal -0 -0.998993 -0.0448647
  outer loop
   vertex 0.17 -0.0248994 -0.067241
   vertex 0.27 -0.025 -0.065
   vertex 0.17 -0.025 -0.065
  endloop
 endfacet
 facet normal 0 -0.99095 -0.134234
  outer loop
   vertex 0.27 -0.0245982 -0.0694639
   vertex 0.27 -0.0248994 -0.067241
   vertex 0.17 -0.0245982 -0.0694639
  endloop
 endfacet
 facet normal -0 -0.99095 -0.134234
  outer loop
   vertex 0.17 -0.0245982 -0.0694639
   vertex 0.27 -0.0248994 -0.067241
   vertex 0.17 -0.0248994 -0.067241
  endloop
 endfacet
 facet normal 0 -0.974928 -0.222521
  outer loop
   vertex 0.27 -0.0240991 -0.0716509
   vertex 0.27 -0.0245982 -0.0694639
   vertex 0.17 -0.0240991 -0.0716509
  endloop
 endfacet
 facet normal -0 -0.974928 -0.222521
  outer loop
   vertex 0.17 -0.0240991 -0.0716509
   vertex 0.27 -0.0245982 -0.0694639
   vertex 0.17 -0.0245982 -0.0694639
  endloop
 endfacet
 facet normal 0 -0.951057 -0.309016
  outer loop
   vertex 0.27 -0.0234059 -0.0737844
   vertex 0.27 -0.0240991 -0.0716509
   vertex 0.17 -0.0234059 -0.0737844
  endloop
 endfacet
 facet normal -0 -0.951057 -0.309016
  outer loop
   vertex 0.17 -0.0234059 -0.0737844
   vertex 0.27 -0.0240991 -0.0716509
   vertex 0.17 -0.0240991 -0.0716509
  endloop
 endfacet
 facet normal 0 -0.919528 -0.393026
  outer loop
   vertex 0.27 -0.0225242 -0.0758471
   vertex 0.27 -0.0234059 -0.0737844
   vertex 0.17 -0.0225242 -0.0758471
  endloop
 endfacet
 facet normal -0 -0.919528 -0.393026
  outer loop
   vertex 0.17 -0.0225242 -0.0758471
   vertex 0.27 -0.0234059 -0.0737844
   vertex 0.17 -0.0234059 -0.0737844
  endloop
 endfacet
 facet normal 0 -0.880596 -0.473868
  outer loop
   vertex 0.27 -0.0214612 -0.0778225
   vertex 0.27 -0.0225242 -0.0758471
   vertex 0.17 -0.0214612 -0.0778225
  endloop
 endfacet
 facet normal -0 -0.880596 -0.473868
  outer loop
   vertex 0.17 -0.0214612 -0.0778225
   vertex 0.27 -0.0225242 -0.0758471
   vertex 0.17 -0.0225242 -0.0758471
  endloop
 endfacet
 facet normal 0 -0.834572 -0.550898
  outer loop
   vertex 0.27 -0.0202254 -0.0796946
   vertex 0.27 -0.0214612 -0.0778225
   vertex 0.17 -0.0202254 -0.0796946
  endloop
 endfacet
 facet normal -0 -0.834572 -0.550898
  outer loop
   vertex 0.17 -0.0202254 -0.0796946
   vertex 0.27 -0.0214612 -0.0778225
   vertex 0.17 -0.0214612 -0.0778225
  endloop
 endfacet
 facet normal 0 -0.781832 -0.62349
  outer loop
   vertex 0.27 -0.0188268 -0.0814485
   vertex 0.27 -0.0202254 -0.0796946
   vertex 0.17 -0.0188268 -0.0814485
  endloop
 endfacet
 facet normal -0 -0.781832 -0.62349
  outer loop
   vertex 0.17 -0.0188268 -0.0814485
   vertex 0.27 -0.0202254 -0.0796946
   vertex 0.17 -0.0202254 -0.0796946
  endloop
 endfacet
 facet normal 0 -0.722796 -0.691061
  outer loop
   vertex 0.27 -0.0172766 -0.0830699
   vertex 0.27 -0.0188268 -0.0814485
   vertex 0.17 -0.0172766 -0.0830699
  endloop
 endfacet
 facet normal -0 -0.722796 -0.691061
  outer loop
   vertex 0.17 -0.0172766 -0.0830699
   vertex 0.27 -0.0188268 -0.0814485
   vertex 0.17 -0.0188268 -0.0814485
  endloop
 endfacet
 facet normal 0 -0.657938 -0.753072
  outer loop
   vertex 0.27 -0.0155872 -0.0845458
   vertex 0.27 -0.0172766 -0.0830699
   vertex 0.17 -0.0155872 -0.0845458
  endloop
 endfacet
 facet normal -0 -0.657938 -0.753072
  outer loop
   vertex 0.17 -0.0155872 -0.0845458
   vertex 0.27 -0.0172766 -0.0830699
   vertex 0.17 -0.0172766 -0.0830699
  endloop
 endfacet
 facet normal 0 -0.587785 -0.809017
  outer loop
   vertex 0.27 -0.0137724 -0.0858643
   vertex 0.27 -0.0155872 -0.0845458
   vertex 0.17 -0.0137724 -0.0858643
  endloop
 endfacet
 facet normal -0 -0.587785 -0.809017
  outer loop
   vertex 0.17 -0.0137724 -0.0858643
   vertex 0.27 -0.0155872 -0.0845458
   vertex 0.17 -0.0155872 -0.0845458
  endloop
 endfacet
 facet normal 0 -0.512899 -0.858449
  outer loop
   vertex 0.27 -0.0118467 -0.0870149
   vertex 0.27 -0.0137724 -0.0858643
   vertex 0.17 -0.0118467 -0.0870149
  endloop
 endfacet
 facet normal -0 -0.512899 -0.858449
  outer loop
   vertex 0.17 -0.0118467 -0.0870149
   vertex 0.27 -0.0137724 -0.0858643
   vertex 0.17 -0.0137724 -0.0858643
  endloop
 endfacet
 facet normal 0 -0.433884 -0.900969
  outer loop
   vertex 0.27 -0.00982563 -0.0879882
   vertex 0.27 -0.0118467 -0.0870149
   vertex 0.17 -0.00982563 -0.0879882
  endloop
 endfacet
 facet normal -0 -0.433884 -0.900969
  outer loop
   vertex 0.17 -0.00982563 -0.0879882
   vertex 0.27 -0.0118467 -0.0870149
   vertex 0.17 -0.0118467 -0.0870149
  endloop
 endfacet
 facet normal 0 -0.351375 -0.936235
  outer loop
   vertex 0.27 -0.00772542 -0.0887764
   vertex 0.27 -0.00982563 -0.0879882
   vertex 0.17 -0.00772542 -0.0887764
  endloop
 endfacet
 facet normal -0 -0.351375 -0.936235
  outer loop
   vertex 0.17 -0.00772542 -0.0887764
   vertex 0.27 -0.00982563 -0.0879882
   vertex 0.17 -0.00982563 -0.0879882
  endloop
 endfacet
 facet normal 0 -0.266036 -0.963963
  outer loop
   vertex 0.27 -0.00556302 -0.0893732
   vertex 0.27 -0.00772542 -0.0887764
   vertex 0.17 -0.00556302 -0.0893732
  endloop
 endfacet
 facet normal -0 -0.266036 -0.963963
  outer loop
   vertex 0.17 -0.00556302 -0.0893732
   vertex 0.27 -0.00772542 -0.0887764
   vertex 0.17 -0.00772542 -0.0887764
  endloop
 endfacet
 facet normal 0 -0.178556 -0.98393
  outer loop
   vertex 0.27 -0.00335583 -0.0897737
   vertex 0.27 -0.00556302 -0.0893732
   vertex 0.17 -0.00335583 -0.0897737
  endloop
 endfacet
 facet normal -0 -0.178556 -0.98393
  outer loop
   vertex 0.17 -0.00335583 -0.0897737
   vertex 0.27 -0.00556302 -0.0893732
   vertex 0.17 -0.00556302 -0.0893732
  endloop
 endfacet
 facet normal 0 -0.0896398 -0.995974
  outer loop
   vertex 0.27 -0.00112162 -0.0899748
   vertex 0.27 -0.00335583 -0.0897737
   vertex 0.17 -0.00112162 -0.0899748
  endloop
 endfacet
 facet normal -0 -0.0896398 -0.995974
  outer loop
   vertex 0.17 -0.00112162 -0.0899748
   vertex 0.27 -0.00335583 -0.0897737
   vertex 0.17 -0.00335583 -0.0897737
  endloop
 endfacet
 facet normal 0 0 -1
  outer loop
   vertex 0.27 0.00112162 -0.0899748
   vertex 0.27 -0.00112162 -0.0899748
   vertex 0.17 0.00112162 -0.0899748
  endloop
 endfacet
 facet normal 0 0 -1
  outer loop
   vertex 0.17 0.00112162 -0.0899748
   vertex 0.27 -0.00112162 -0.0899748
   vertex 0.17 -0.00112162 -0.0899748
  endloop
 endfacet
 facet normal 0 0.0896398 -0.995974
  outer loop
   vertex 0.27 0.00335583 -0.0897737
   vertex 0.27 0.00112162 -0.0899748
   vertex 0.17 0.00335583 -0.0897737
  endloop
 endfacet
 facet normal 0 0.0896398 -0.995974
  outer loop
   vertex 0.17 0.00335583 -0.0897737
   vertex 0.27 0.00112162 -0.0899748
   vertex 0.17 0.00112162 -0.0899748
  endloop
 endfacet
 facet normal 0 0.178556 -0.98393
  outer loop
   vertex 0.27 0.00556302 -0.0893732
   vertex 0.27 0.00335583 -0.0897737
   vertex 0.17 0.00556302 -0.0893732
  endloop
 endfacet
 facet normal 0 0.178556 -0.98393
  outer loop
   vertex 0.17 0.00556302 -0.0893732
   vertex 0.27 0.00335583 -0.0897737
   vertex 0.17 0.00335583 -0.0897737
  endloop
 endfacet
 facet normal 0 0.26604 -0.963962
  outer loop
   vertex 0.27 0.00772543 -0.0887764
   vertex 0.27 0.00556302 -0.0893732
   vertex 0.17 0.00772543 -0.0887764
  endloop
 endfacet
 facet normal 0 0.26604 -0.963962
  outer loop
   vertex 0.17 0.00772543 -0.0887764
   vertex 0.27 0.00556302 -0.0893732
   vertex 0.17 0.00556302 -0.0893732
  endloop
 endfacet
 facet normal 0 0.351372 -0.936236
  outer loop
   vertex 0.27 0.00982563 -0.0879882
   vertex 0.27 0.00772543 -0.0887764
   vertex 0.17 0.00982563 -0.0879882
  endloop
 endfacet
 facet normal 0 0.351372 -0.936236
  outer loop
   vertex 0.17 0.00982563 -0.0879882
   vertex 0.27 0.00772543 -0.0887764
   vertex 0.17 0.00772543 -0.0887764
  endloop
 endfacet
 facet normal 0 0.433884 -0.900969
  outer loop
   vertex 0.27 0.0118467 -0.0870149
   vertex 0.27 0.00982563 -0.0879882
   vertex 0.17 0.0118467 -0.0870149
  endloop
 endfacet
 facet normal 0 0.433884 -0.900969
  outer loop
   vertex 0.17 0.0118467 -0.0870149
   vertex 0.27 0.00982563 -0.0879882
   vertex 0.17 0.00982563 -0.0879882
  endloop
 endfacet
 facet normal 0 0.512901 -0.858448
  outer loop
   vertex 0.27 0.0137724 -0.0858643
   vertex 0.27 0.0118467 -0.0870149
   vertex 0.17 0.0137724 -0.0858643
  endloop
 endfacet
 facet normal 0 0.512901 -0.858448
  outer loop
   vertex 0.17 0.0137724 -0.0858643
   vertex 0.27 0.0118467 -0.0870149
   vertex 0.17 0.0118467 -0.0870149
  endloop
 endfacet
 facet normal 0 0.587785 -0.809017
  outer loop
   vertex 0.27 0.0155872 -0.0845458
   vertex 0.27 0.0137724 -0.0858643
   vertex 0.17 0.0155872 -0.0845458
  endloop
 endfacet
 facet normal 0 0.587785 -0.809017
  outer loop
   vertex 0.17 0.0155872 -0.0845458
   vertex 0.27 0.0137724 -0.0858643
   vertex 0.17 0.0137724 -0.0858643
  endloop
 endfacet
 facet normal 0 0.657939 -0.753071
  outer loop
   vertex 0.27 0.0172766 -0.0830699
   vertex 0.27 0.0155872 -0.0845458
   vertex 0.17 0.0172766 -0.0830699
  endloop
 endfacet
 facet normal 0 0.657939 -0.753071
  outer loop
   vertex 0.17 0.0172766 -0.0830699
   vertex 0.27 0.0155872 -0.0845458
   vertex 0.17 0.0155872 -0.0845458
  endloop
 endfacet
 facet normal 0 0.722794 -0.691063
  outer loop
   vertex 0.27 0.0188268 -0.0814485
   vertex 0.27 0.0172766 -0.0830699
   vertex 0.17 0.0188268 -0.0814485
  endloop
 endfacet
 facet normal 0 0.722794 -0.691063
  outer loop
   vertex 0.17 0.0188268 -0.0814485
   vertex 0.27 0.0172766 -0.0830699
   vertex 0.17 0.0172766 -0.0830699
  endloop
 endfacet
 facet normal 0 0.781832 -0.62349
  outer loop
   vertex 0.27 0.0202254 -0.0796946
   vertex 0.27 0.0188268 -0.0814485
   vertex 0.17 0.0202254 -0.0796946
  endloop
 endfacet
 facet normal 0 0.781832 -0.62349
  outer loop
   vertex 0.17 0.0202254 -0.0796946
   vertex 0.27 0.0188268 -0.0814485
   vertex 0.17 0.0188268 -0.0814485
  endloop
 endfacet
 facet normal 0 0.834574 -0.550896
  outer loop
   vertex 0.27 0.0214612 -0.0778225
   vertex 0.27 0.0202254 -0.0796946
   vertex 0.17 0.0214612 -0.0778225
  endloop
 endfacet
 facet normal 0 0.834574 -0.550896
  outer loop
   vertex 0.17 0.0214612 -0.0778225
   vertex 0.27 0.0202254 -0.0796946
   vertex 0.17 0.0202254 -0.0796946
  endloop
 endfacet
 facet normal 0 0.880595 -0.473869
  outer loop
   vertex 0.27 0.0225242 -0.0758471
   vertex 0.27 0.0214612 -0.0778225
   vertex 0.17 0.0225242 -0.0758471
  endloop
 endfacet
 facet normal 0 0.880595 -0.473869
  outer loop
   vertex 0.17 0.0225242 -0.0758471
   vertex 0.27 0.0214612 -0.0778225
   vertex 0.17 0.0214612 -0.0778225
  endloop
 endfacet
 facet normal 0 0.919528 -0.393025
  outer loop
   vertex 0.27 0.0234059 -0.0737844
   vertex 0.27 0.0225242 -0.0758471
   vertex 0.17 0.0234059 -0.0737844
  endloop
 endfacet
 facet normal 0 0.919528 -0.393025
  outer loop
   vertex 0.17 0.0234059 -0.0737844
   vertex 0.27 0.0225242 -0.0758471
   vertex 0.17 0.0225242 -0.0758471
  endloop
 endfacet
 facet normal 0 0.951056 -0.309018
  outer loop
   vertex 0.27 0.0240991 -0.0716509
   vertex 0.27 0.0234059 -0.0737844
   vertex 0.17 0.0240991 -0.0716509
  endloop
 endfacet
 facet normal 0 0.951056 -0.309018
  outer loop
   vertex 0.17 0.0240991 -0.0716509
   vertex 0.27 0.0234059 -0.0737844
   vertex 0.17 0.0234059 -0.0737844
  endloop
 endfacet
 facet normal 0 0.974928 -0.222521
  outer loop
   vertex 0.27 0.0245982 -0.0694639
   vertex 0.27 0.0240991 -0.0716509
   vertex 0.17 0.0245982 -0.0694639
  endloop
 endfacet
 facet normal 0 0.974928 -0.222521
  outer loop
   vertex 0.17 0.0245982 -0.0694639
   vertex 0.27 0.0240991 -0.0716509
   vertex 0.17 0.0240991 -0.0716509
  endloop
 endfacet
 facet normal 0 0.99095 -0.134233
  outer loop
   vertex 0.27 0.0248994 -0.067241
   vertex 0.27 0.0245982 -0.0694639
   vertex 0.17 0.0248994 -0.067241
  endloop
 endfacet
 facet normal 0 0.99095 -0.134233
  outer loop
   vertex 0.17 0.0248994 -0.067241
   vertex 0.27 0.0245982 -0.0694639
   vertex 0.17 0.0245982 -0.0694639
  endloop
 endfacet
 facet normal 0 0.998993 -0.0448647
  outer loop
   vertex 0.27 0.025 -0.065
   vertex 0.27 0.0248994 -0.067241
   vertex 0.17 0.025 -0.065
  endloop
 endfacet
 facet normal 0 0.998993 -0.0448647
  outer loop
   vertex 0.17 0.025 -0.065
   vertex 0.27 0.0248994 -0.067241
   vertex 0.17 0.0248994 -0.067241
  endloop
 endfacet
 facet normal 0 0.998993 0.0448647
  outer loop
   vertex 0.27 0.0248994 -0.062759
   vertex 0.27 0.025 -0.065
   vertex 0.17 0.0248994 -0.062759
  endloop
 endfacet
 facet normal 0 0.998993 0.0448647
  outer loop
   vertex 0.17 0.0248994 -0.062759
   vertex 0.27 0.025 -0.065
   vertex 0.17 0.025 -0.065
  endloop
 endfacet
 facet normal 0 0.99095 0.134234
  outer loop
   vertex 0.27 0.0245982 -0.0605361
   vertex 0.27 0.0248994 -0.062759
   vertex 0.17 0.0245982 -0.0605361
  endloop
 endfacet
 facet normal 0 0.99095 0.134234
  outer loop
   vertex 0.17 0.0245982 -0.0605361
   vertex 0.27 0.0248994 -0.062759
   vertex 0.17 0.0248994 -0.062759
  endloop
 endfacet
 facet normal 0 0.974928 0.222521
  outer loop
   vertex 0.27 0.0240991 -0.0583491
   vertex 0.27 0.0245982 -0.0605361
   vertex 0.17 0.0240991 -0.0583491
  endloop
 endfacet
 facet normal 0 0.974928 0.222521
  outer loop
   vertex 0.17 0.0240991 -0.0583491
   vertex 0.27 0.0245982 -0.0605361
   vertex 0.17 0.0245982 -0.0605361
  endloop
 endfacet
 facet normal 0 0.951057 0.309017
  outer loop
   vertex 0.27 0.0234059 -0.0562156
   vertex 0.27 0.0240991 -0.0583491
   vertex 0.17 0.0234059 -0.0562156
  endloop
 endfacet
 facet normal 0 0.951057 0.309017
  outer loop
   vertex 0.17 0.0234059 -0.0562156
   vertex 0.27 0.0240991 -0.0583491
   vertex 0.17 0.0240991 -0.0583491
  endloop
 endfacet
 facet normal 0 0.919528 0.393025
  outer loop
   vertex 0.27 0.0225242 -0.0541529
   vertex 0.27 0.0234059 -0.0562156
   vertex 0.17 0.0225242 -0.0541529
  endloop
 endfacet
 facet normal 0 0.919528 0.393025
  outer loop
   vertex 0.17 0.0225242 -0.0541529
   vertex 0.27 0.0234059 -0.0562156
   vertex 0.17 0.0234059 -0.0562156
  endloop
 endfacet
 facet normal 0 0.880596 0.473868
  outer loop
   vertex 0.27 0.0214612 -0.0521775
   vertex 0.27 0.0225242 -0.0541529
   vertex 0.17 0.0214612 -0.0521775
  endloop
 endfacet
 facet normal 0 0.880596 0.473868
  outer loop
   vertex 0.17 0.0214612 -0.0521775
   vertex 0.27 0.0225242 -0.0541529
   vertex 0.17 0.0225242 -0.0541529
  endloop
 endfacet
 facet normal 0 0.834573 0.550898
  outer loop
   vertex 0.27 0.0202254 -0.0503054
   vertex 0.27 0.0214612 -0.0521775
   vertex 0.17 0.0202254 -0.0503054
  endloop
 endfacet
 facet normal 0 0.834573 0.550898
  outer loop
   vertex 0.17 0.0202254 -0.0503054
   vertex 0.27 0.0214612 -0.0521775
   vertex 0.17 0.0214612 -0.0521775
  endloop
 endfacet
 facet normal 0 0.781832 0.62349
  outer loop
   vertex 0.27 0.0188268 -0.0485515
   vertex 0.27 0.0202254 -0.0503054
   vertex 0.17 0.0188268 -0.0485515
  endloop
 endfacet
 facet normal 0 0.781832 0.62349
  outer loop
   vertex 0.17 0.0188268 -0.0485515
   vertex 0.27 0.0202254 -0.0503054
   vertex 0.17 0.0202254 -0.0503054
  endloop
 endfacet
 facet normal 0 0.722795 0.691063
  outer loop
   vertex 0.27 0.0172766 -0.0469301
   vertex 0.27 0.0188268 -0.0485515
   vertex 0.17 0.0172766 -0.0469301
  endloop
 endfacet
 facet normal 0 0.722795 0.691063
  outer loop
   vertex 0.17 0.0172766 -0.0469301
   vertex 0.27 0.0188268 -0.0485515
   vertex 0.17 0.0188268 -0.0485515
  endloop
 endfacet
 facet normal 0 0.657939 0.753072
  outer loop
   vertex 0.27 0.0155872 -0.0454542
   vertex 0.27 0.0172766 -0.0469301
   vertex 0.17 0.0155872 -0.0454542
  endloop
 endfacet
 facet normal 0 0.657939 0.753072
  outer loop
   vertex 0.17 0.0155872 -0.0454542
   vertex 0.27 0.0172766 -0.0469301
   vertex 0.17 0.0172766 -0.0469301
  endloop
 endfacet
 facet normal 0 0.587785 0.809017
  outer loop
   vertex 0.27 0.0137724 -0.0441357
   vertex 0.27 0.0155872 -0.0454542
   vertex 0.17 0.0137724 -0.0441357
  endloop
 endfacet
 facet normal 0 0.587785 0.809017
  outer loop
   vertex 0.17 0.0137724 -0.0441357
   vertex 0.27 0.0155872 -0.0454542
   vertex 0.17 0.0155872 -0.0454542
  endloop
 endfacet
 facet normal 0 0.512899 0.858449
  outer loop
   vertex 0.27 0.0118467 -0.0429851
   vertex 0.27 0.0137724 -0.0441357
   vertex 0.17 0.0118467 -0.0429851
  endloop
 endfacet
 facet normal 0 0.512899 0.858449
  outer loop
   vertex 0.17 0.0118467 -0.0429851
   vertex 0.27 0.0137724 -0.0441357
   vertex 0.17 0.0137724 -0.0441357
  endloop
 endfacet
 facet normal 0 0.433884 0.900969
  outer loop
   vertex 0.27 0.00982562 -0.0420118
   vertex 0.27 0.0118467 -0.0429851
   vertex 0.17 0.00982562 -0.0420118
  endloop
 endfacet
 facet normal 0 0.433884 0.900969
  outer loop
   vertex 0.17 0.00982562 -0.0420118
   vertex 0.27 0.0118467 -0.0429851
   vertex 0.17 0.0118467 -0.0429851
  endloop
 endfacet
 facet normal 0 0.351375 0.936235
  outer loop
   vertex 0.27 0.00772542 -0.0412236
   vertex 0.27 0.00982562 -0.0420118
   vertex 0.17 0.00772542 -0.0412236
  endloop
 endfacet
 facet normal 0 0.351375 0.936235
  outer loop
   vertex 0.17 0.00772542 -0.0412236
   vertex 0.27 0.00982562 -0.0420118
   vertex 0.17 0.00982562 -0.0420118
  endloop
 endfacet
 facet normal 0 0.266036 0.963963
  outer loop
   vertex 0.27 0.00556302 -0.0406268
   vertex 0.27 0.00772542 -0.0412236
   vertex 0.17 0.00556302 -0.0406268
  endloop
 endfacet
 facet normal 0 0.266036 0.963963
  outer loop
   vertex 0.17 0.00556302 -0.0406268
   vertex 0.27 0.00772542 -0.0412236
   vertex 0.17 0.00772542 -0.0412236
  endloop
 endfacet
 facet normal 0 0.178557 0.98393
  outer loop
   vertex 0.27 0.00335583 -0.0402263
   vertex 0.27 0.00556302 -0.0406268
   vertex 0.17 0.00335583 -0.0402263
  endloop
 endfacet
 facet normal 0 0.178557 0.98393
  outer loop
   vertex 0.17 0.00335583 -0.0402263
   vertex 0.27 0.00556302 -0.0406268
   vertex 0.17 0.00556302 -0.0406268
  endloop
 endfacet
 facet normal 0 0.0896381 0.995974
  outer loop
   vertex 0.27 0.00112162 -0.0400252
   vertex 0.27 0.00335583 -0.0402263
   vertex 0.17 0.00112162 -0.0400252
  endloop
 endfacet
 facet normal 0 0.0896381 0.995974
  outer loop
   vertex 0.17 0.00112162 -0.0400252
   vertex 0.27 0.00335583 -0.0402263
   vertex 0.17 0.00335583 -0.0402263
  endloop
 endfacet
 facet normal 0 0 1
  outer loop
   vertex 0.27 -0.00112162 -0.0400252
   vertex 0.27 0.00112162 -0.0400252
   vertex 0.17 -0.00112162 -0.0400252
  endloop
 endfacet
 facet normal 0 0 1
  outer loop
   vertex 0.17 -0.00112162 -0.0400252
   vertex 0.27 0.00112162 -0.0400252
   vertex 0.17 0.00112162 -0.0400252
  endloop
 endfacet
 facet normal 0 -0.0896398 0.995974
  outer loop
   vertex 0.27 -0.00335584 -0.0402263
   vertex 0.27 -0.00112162 -0.0400252
   vertex 0.17 -0.00335584 -0.0402263
  endloop
 endfacet
 facet normal 0 -0.0896398 0.995974
  outer loop
   vertex 0.17 -0.00335584 -0.0402263
   vertex 0.27 -0.00112162 -0.0400252
   vertex 0.17 -0.00112162 -0.0400252
  endloop
 endfacet
 facet normal 0 -0.178556 0.98393
  outer loop
   vertex 0.27 -0.00556303 -0.0406268
   vertex 0.27 -0.00335584 -0.0402263
   vertex 0.17 -0.00556303 -0.0406268
  endloop
 endfacet
 facet normal 0 -0.178556 0.98393
  outer loop
   vertex 0.17 -0.00556303 -0.0406268
   vertex 0.27 -0.00335584 -0.0402263
   vertex 0.17 -0.00335584 -0.0402263
  endloop
 endfacet
 facet normal 0 -0.266038 0.963963
  outer loop
   vertex 0.27 -0.00772543 -0.0412236
   vertex 0.27 -0.00556303 -0.0406268
   vertex 0.17 -0.00772543 -0.0412236
  endloop
 endfacet
 facet normal 0 -0.266038 0.963963
  outer loop
   vertex 0.17 -0.00772543 -0.0412236
   vertex 0.27 -0.00556303 -0.0406268
   vertex 0.17 -0.00556303 -0.0406268
  endloop
 endfacet
 facet normal 0 -0.351375 0.936235
  outer loop
   vertex 0.27 -0.00982563 -0.0420118
   vertex 0.27 -0.00772543 -0.0412236
   vertex 0.17 -0.00982563 -0.0420118
  endloop
 endfacet
 facet normal 0 -0.351375 0.936235
  outer loop
   vertex 0.17 -0.00982563 -0.0420118
   vertex 0.27 -0.00772543 -0.0412236
   vertex 0.17 -0.00772543 -0.0412236
  endloop
 endfacet
 facet normal 0 -0.433884 0.900969
  outer loop
   vertex 0.27 -0.0118467 -0.0429851
   vertex 0.27 -0.00982563 -0.0420118
   vertex 0.17 -0.0118467 -0.0429851
  endloop
 endfacet
 facet normal 0 -0.433884 0.900969
  outer loop
   vertex 0.17 -0.0118467 -0.0429851
   vertex 0.27 -0.00982563 -0.0420118
   vertex 0.17 -0.00982563 -0.0420118
  endloop
 endfacet
 facet normal 0 -0.512899 0.858449
  outer loop
   vertex 0.27 -0.0137724 -0.0441357
   vertex 0.27 -0.0118467 -0.0429851
   vertex 0.17 -0.0137724 -0.0441357
  endloop
 endfacet
 facet normal 0 -0.512899 0.858449
  outer loop
   vertex 0.17 -0.0137724 -0.0441357
   vertex 0.27 -0.0118467 -0.0429851
   vertex 0.17 -0.0118467 -0.0429851
  endloop
 endfacet
 facet normal 0 -0.587785 0.809017
  outer loop
   vertex 0.27 -0.0155872 -0.0454542
   vertex 0.27 -0.0137724 -0.0441357
   vertex 0.17 -0.0155872 -0.0454542
  endloop
 endfacet
 facet normal 0 -0.587785 0.809017
  outer loop
   vertex 0.17 -0.0155872 -0.0454542
   vertex 0.27 -0.0137724 -0.0441357
   vertex 0.17 -0.0137724 -0.0441357
  endloop
 endfacet
 facet normal 0 -0.657939 0.753071
  outer loop
   vertex 0.27 -0.0172766 -0.0469301
   vertex 0.27 -0.0155872 -0.0454542
   vertex 0.17 -0.0172766 -0.0469301
  endloop
 endfacet
 facet normal 0 -0.657939 0.753071
  outer loop
   vertex 0.17 -0.0172766 -0.0469301
   vertex 0.27 -0.0155872 -0.0454542
   vertex 0.17 -0.0155872 -0.0454542
  endloop
 endfacet
 facet normal 0 -0.722795 0.691063
  outer loop
   vertex 0.27 -0.0188268 -0.0485515
   vertex 0.27 -0.0172766 -0.0469301
   vertex 0.17 -0.0188268 -0.0485515
  endloop
 endfacet
 facet normal 0 -0.722795 0.691063
  outer loop
   vertex 0.17 -0.0188268 -0.0485515
   vertex 0.27 -0.0172766 -0.0469301
   vertex 0.17 -0.0172766 -0.0469301
  endloop
 endfacet
 facet normal 0 -0.781831 0.62349
  outer loop
   vertex 0.27 -0.0202254 -0.0503054
   vertex 0.27 -0.0188268 -0.0485515
   vertex 0.17 -0.0202254 -0.0503054
  endloop
 endfacet
 facet normal 0 -0.781831 0.62349
  outer loop
   vertex 0.17 -0.0202254 -0.0503054
   vertex 0.27 -0.0188268 -0.0485515
   vertex 0.17 -0.0188268 -0.0485515
  endloop
 endfacet
 facet normal 0 -0.834574 0.550896
  outer loop
   vertex 0.27 -0.0214612 -0.0521775
   vertex 0.27 -0.0202254 -0.0503054
   vertex 0.17 -0.0214612 -0.0521775
  endloop
 endfacet
 facet normal 0 -0.834574 0.550896
  outer loop
   vertex 0.17 -0.0214612 -0.0521775
   vertex 0.27 -0.0202254 -0.0503054
   vertex 0.17 -0.0202254 -0.0503054
  endloop
 endfacet
 facet normal 0 -0.880596 0.473868
  outer loop
   vertex 0.27 -0.0225242 -0.0541529
   vertex 0.27 -0.0214612 -0.0521775
   vertex 0.17 -0.0225242 -0.0541529
  endloop
 endfacet
 facet normal 0 -0.880596 0.473868
  outer loop
   vertex 0.17 -0.0225242 -0.0541529
   vertex 0.27 -0.0214612 -0.0521775
   vertex 0.17 -0.0214612 -0.0521775
  endloop
 endfacet
 facet normal 0 -0.919528 0.393025
  outer loop
   vertex 0.27 -0.0234059 -0.0562156
   vertex 0.27 -0.0225242 -0.0541529
   vertex 0.17 -0.0234059 -0.0562156
  endloop
 endfacet
 facet normal 0 -0.919528 0.393025
  outer loop
   vertex 0.17 -0.0234059 -0.0562156
   vertex 0.27 -0.0225242 -0.0541529
   vertex 0.17 -0.0225242 -0.0541529
  endloop
 endfacet
 facet normal 0 -0.951057 0.309017
  outer loop
   vertex 0.27 -0.0240991 -0.0583491
   vertex 0.27 -0.0234059 -0.0562156
   vertex 0.17 -0.0240991 -0.0583491
  endloop
 endfacet
 facet normal 0 -0.951057 0.309017
  outer loop
   vertex 0.17 -0.0240991 -0.0583491
   vertex 0.27 -0.0234059 -0.0562156
   vertex 0.17 -0.0234059 -0.0562156
  endloop
 endfacet
 facet normal 0 -0.974928 0.222521
  outer loop
   vertex 0.27 -0.0245982 -0.0605361
   vertex 0.27 -0.0240991 -0.0583491
   vertex 0.17 -0.0245982 -0.0605361
  endloop
 endfacet
 facet normal 0 -0.974928 0.222521
  outer loop
   vertex 0.17 -0.0245982 -0.0605361
   vertex 0.27 -0.0240991 -0.0583491
   vertex 0.17 -0.0240991 -0.0583491
  endloop
 endfacet
 facet normal 0 -0.99095 0.134233
  outer loop
   vertex 0.27 -0.0248994 -0.062759
   vertex 0.27 -0.0245982 -0.0605361
   vertex 0.17 -0.0248994 -0.062759
  endloop
 endfacet
 facet normal 0 -0.99095 0.134233
  outer loop
   vertex 0.17 -0.0248994 -0.062759
   vertex 0.27 -0.0245982 -0.0605361
   vertex 0.17 -0.0245982 -0.0605361
  endloop
 endfacet
 facet normal 0 -0.998993 0.0448648
  outer loop
   vertex 0.27 -0.025 -0.065
   vertex 0.27 -0.0248994 -0.062759
   vertex 0.17 -0.025 -0.065
  endloop
 endfacet
 facet normal 0 -0.998993 0.0448648
  outer loop
   vertex 0.17 -0.025 -0.065
   vertex 0.27 -0.0248994 -0.062759
   vertex 0.17 -0.0248994 -0.062759
  endloop
 endfacet
 facet normal 1 0 0
  outer loop
   vertex 0.27 0 -0.065
   vertex 0.27 0 -0.09
   vertex 0.27 0.0043412 -0.0896202
  endloop
 endfacet
 facet normal 1 0 -0
  outer loop
   vertex 0.27 0 -0.065
   vertex 0.27 0.0043412 -0.0896202
   vertex 0.27 0.0085505 -0.0884923
  endloop
 endfacet
 facet normal 1 0 -0
  outer loop
   vertex 0.27 0 -0.065
   vertex 0.27 0.0085505 -0.0884923
   vertex 0.27 0.0125 -0.0866506
  endloop
 endfacet
 facet normal 1 0 -0
  outer loop
   vertex 0.27 0 -0.065
   vertex 0.27 0.0125 -0.0866506
   vertex 0.27 0.0160697 -0.0841511
  endloop
 endfacet
 facet normal 1 0 -0
  outer loop
   vertex 0.27 0 -0.065
   vertex 0.27 0.0160697 -0.0841511
   vertex 0.27 0.0191511 -0.0810697
  endloop
 endfacet
 facet normal 1 0 -0
  outer loop
   vertex 0.27 0 -0.065
   vertex 0.27 0.0191511 -0.0810697
   vertex 0.27 0.0216506 -0.0775
  endloop
 endfacet
 facet normal 1 0 -0
  outer loop
   vertex 0.27 0 -0.065
   vertex 0.27 0.0216506 -0.0775
   vertex 0.27 0.0234923 -0.0735505
  endloop
 endfacet
 facet normal 1 0 -0
  outer loop
   vertex 0.27 0 -0.065
   vertex 0.27 0.0234923 -0.0735505
   vertex 0.27 0.0246202 -0.0693412
  endloop
 endfacet
 facet normal 1 0 -0
  outer loop
   vertex 0.27 0 -0.065
   vertex 0.27 0.0246202 -0.0693412
   vertex 0.27 0.025 -0.065
  endloop
 endfacet
 facet normal 1 0 0
  outer loop
   vertex 0.27 0 -0.065
   vertex 0.27 0.025 -0.065
   vertex 0.27 0.0246202 -0.0606588
  endloop
 endfacet
 facet normal 1 0 0
  outer loop
   vertex 0.27 0 -0.065
   vertex 0.27 0.0246202 -0.0606588
   vertex 0.27 0.0234923 -0.0564495
  endloop
 endfacet
 facet normal 1 0 0
  outer loop
   vertex 0.27 0 -0.065
   vertex 0.27 0.0234923 -0.0564495
   vertex 0.27 0.0216506 -0.0525
  endloop
 endfacet
 facet normal 1 0 0
  outer loop
   vertex 0.27 0 -0.065
   vertex 0.27 0.0216506 -0.0525
   vertex 0.27 0.0191511 -0.0489303
  endloop
 endfacet
 facet normal 1 0 0
  outer loop
   vertex 0.27 0 -0.065
   vertex 0.27 0.0191511 -0.0489303
   vertex 0.27 0.0160697 -0.0458489
  endloop
 endfacet
 facet normal 1 0 0
  outer loop
   vertex 0.27 0 -0.065
   vertex 0.27 0.0160697 -0.0458489
   vertex 0.27 0.0125 -0.0433494
  endloop
 endfacet
 facet normal 1 0 0
  outer loop
   vertex 0.27 0 -0.065
   vertex 0.27 0.0125 -0.0433494
   vertex 0.27 0.0085505 -0.0415077
  endloop
 endfacet
 facet normal 1 0 0
  outer loop
   vertex 0.27 0 -0.065
   vertex 0.27 0.0085505 -0.0415077
   vertex 0.27 0.0043412 -0.0403798
  endloop
 endfacet
 facet normal 1 0 -0
  outer loop
   vertex 0.27 -2.18557e-009 -0.04
   vertex 0.27 0 -0.065
   vertex 0.27 0.0043412 -0.0403798
  endloop
 endfacet
 facet normal 1 0 0
  outer loop
   vertex 0.27 0 -0.065
   vertex 0.27 -2.18557e-009 -0.04
   vertex 0.27 -0.00434121 -0.0403798
  endloop
 endfacet
 facet normal 1 0 0
  outer loop
   vertex 0.27 -0.00855051 -0.0415077
   vertex 0.27 0 -0.065
   vertex 0.27 -0.00434121 -0.0403798
  endloop
 endfacet
 facet normal 1 -0 0
  outer loop
   vertex 0.27 -0.00855051 -0.0415077
   vertex 0.27 -0.0125 -0.0433494
   vertex 0.27 0 -0.065
  endloop
 endfacet
 facet normal 1 0 0
  outer loop
   vertex 0.27 0 -0.065
   vertex 0.27 -0.0125 -0.0433494
   vertex 0.27 -0.0160697 -0.0458489
  endloop
 endfacet
 facet normal 1 0 0
  outer loop
   vertex 0.27 0 -0.065
   vertex 0.27 -0.0160697 -0.0458489
   vertex 0.27 -0.0191511 -0.0489303
  endloop
 endfacet
 facet normal 1 0 0
  outer loop
   vertex 0.27 0 -0.065
   vertex 0.27 -0.0191511 -0.0489303
   vertex 0.27 -0.0216506 -0.0525
  endloop
 endfacet
 facet normal 1 0 0
  outer loop
   vertex 0.27 0 -0.065
   vertex 0.27 -0.0216506 -0.0525
   vertex 0.27 -0.0234923 -0.0564495
  endloop
 endfacet
 facet normal 1 0 0
  outer loop
   vertex 0.27 0 -0.065
   vertex 0.27 -0.0234923 -0.0564495
   vertex 0.27 -0.0246202 -0.0606588
  endloop
 endfacet
 facet normal 1 0 0
  outer loop
   vertex 0.27 0 -0.065
   vertex 0.27 -0.0246202 -0.0606588
   vertex 0.27 -0.025 -0.065
  endloop
 endfacet
 facet normal 1 -0 0
  outer loop
   vertex 0.27 0 -0.065
   vertex 0.27 -0.025 -0.065
   vertex 0.27 -0.0246202 -0.0693412
  endloop
 endfacet
 facet normal 1 -0 0
  outer loop
   vertex 0.27 0 -0.065
   vertex 0.27 -0.0246202 -0.0693412
   vertex 0.27 -0.0234923 -0.0735505
  endloop
 endfacet
 facet normal 1 0 -0
  outer loop
   vertex 0.27 -0.0234923 -0.0735505
   vertex 0.27 -0.0216506 -0.0775
   vertex 0.27 0 -0.065
  endloop
 endfacet
 facet normal 1 -0 0
  outer loop
   vertex 0.27 0 -0.065
   vertex 0.27 -0.0216506 -0.0775
   vertex 0.27 -0.0191511 -0.0810697
  endloop
 endfacet
 facet normal 1 0 0
  outer loop
   vertex 0.27 -0.0160697 -0.0841511
   vertex 0.27 0 -0.065
   vertex 0.27 -0.0191511 -0.0810697
  endloop
 endfacet
 facet normal 1 -0 0
  outer loop
   vertex 0.27 0 -0.065
   vertex 0.27 -0.0160697 -0.0841511
   vertex 0.27 -0.0125 -0.0866506
  endloop
 endfacet
 facet normal 1 -0 0
  outer loop
   vertex 0.27 0 -0.065
   vertex 0.27 -0.0125 -0.0866506
   vertex 0.27 -0.0085505 -0.0884923
  endloop
 endfacet
 facet normal 1 -0 0
  outer loop
   vertex 0.27 0 -0.065
   vertex 0.27 -0.0085505 -0.0884923
   vertex 0.27 -0.0043412 -0.0896202
  endloop
 endfacet
 facet normal 1 -0 0
  outer loop
   vertex 0.27 0 -0.065
   vertex 0.27 -0.0043412 -0.0896202
   vertex 0.27 0 -0.09
  endloop
 endfacet
facet normal -1 0 0
  outer loop
   vertex 0.17 0.0043412 -0.0896202
   vertex 0.17 0 -0.09
   vertex 0.17 0 -0.065
  endloop
 endfacet
 facet normal -1 0 0
  outer loop
   vertex 0.17 0.0085505 -0.0884923
   vertex 0.17 0.0043412 -0.0896202
   vertex 0.17 0 -0.065
  endloop
 endfacet
 facet normal -1 0 0
  outer loop
   vertex 0.17 0.0125 -0.0866506
   vertex 0.17 0.0085505 -0.0884923
   vertex 0.17 0 -0.065
  endloop
 endfacet
 facet normal -1 0 0
  outer loop
   vertex 0.17 0.0160697 -0.0841511
   vertex 0.17 0.0125 -0.0866506
   vertex 0.17 0 -0.065
  endloop
 endfacet
 facet normal -1 0 0
  outer loop
   vertex 0.17 0.0191511 -0.0810697
   vertex 0.17 0.0160697 -0.0841511
   vertex 0.17 0 -0.065
  endloop
 endfacet
 facet normal -1 0 0
  outer loop
   vertex 0.17 0.0216506 -0.0775
   vertex 0.17 0.0191511 -0.0810697
   vertex 0.17 0 -0.065
  endloop
 endfacet
 facet normal -1 0 0
  outer loop
   vertex 0.17 0.0234923 -0.0735505
   vertex 0.17 0.0216506 -0.0775
   vertex 0.17 0 -0.065
  endloop
 endfacet
 facet normal -1 0 0
  outer loop
   vertex 0.17 0.0246202 -0.0693412
   vertex 0.17 0.0234923 -0.0735505
   vertex 0.17 0 -0.065
  endloop
 endfacet
 facet normal -1 0 0
  outer loop
   vertex 0.17 0.025 -0.065
   vertex 0.17 0.0246202 -0.0693412
   vertex 0.17 0 -0.065
  endloop
 endfacet
 facet normal -1 0 0
  outer loop
   vertex 0.17 0.0246202 -0.0606588
   vertex 0.17 0.025 -0.065
   vertex 0.17 0 -0.065
  endloop
 endfacet
 facet normal -1 -0 0
  outer loop
   vertex 0.17 0.0234923 -0.0564495
   vertex 0.17 0.0246202 -0.0606588
   vertex 0.17 0 -0.065
  endloop
 endfacet
 facet normal -1 -0 0
  outer loop
   vertex 0.17 0.0216506 -0.0525
   vertex 0.17 0.0234923 -0.0564495
   vertex 0.17 0 -0.065
  endloop
 endfacet
 facet normal -1 -0 0
  outer loop
   vertex 0.17 0.0191511 -0.0489303
   vertex 0.17 0.0216506 -0.0525
   vertex 0.17 0 -0.065
  endloop
 endfacet
 facet normal -1 -0 0
  outer loop
   vertex 0.17 0.0160697 -0.0458489
   vertex 0.17 0.0191511 -0.0489303
   vertex 0.17 0 -0.065
  endloop
 endfacet
 facet normal -1 -0 0
  outer loop
   vertex 0.17 0.0125 -0.0433494
   vertex 0.17 0.0160697 -0.0458489
   vertex 0.17 0 -0.065
  endloop
 endfacet
 facet normal -1 -0 0
  outer loop
   vertex 0.17 0.0085505 -0.0415077
   vertex 0.17 0.0125 -0.0433494
   vertex 0.17 0 -0.065
  endloop
 endfacet
 facet normal -1 -0 0
  outer loop
   vertex 0.17 0.0043412 -0.0403798
   vertex 0.17 0.0085505 -0.0415077
   vertex 0.17 0 -0.065
  endloop
 endfacet
 facet normal -1 0 0
  outer loop
   vertex 0.17 0.0043412 -0.0403798
   vertex 0.17 0 -0.065
   vertex 0.17 -2.18557e-009 -0.04
  endloop
 endfacet
 facet normal -1 0 -0
  outer loop
   vertex 0.17 -0.00434121 -0.0403798
   vertex 0.17 -2.18557e-009 -0.04
   vertex 0.17 0 -0.065
  endloop
 endfacet
 facet normal -1 0 0
  outer loop
   vertex 0.17 -0.00434121 -0.0403798
   vertex 0.17 0 -0.065
   vertex 0.17 -0.00855051 -0.0415077
  endloop
 endfacet
 facet normal -1 0 0
  outer loop
   vertex 0.17 0 -0.065
   vertex 0.17 -0.0125 -0.0433494
   vertex 0.17 -0.00855051 -0.0415077
  endloop
 endfacet
 facet normal -1 0 -0
  outer loop
   vertex 0.17 -0.0160697 -0.0458489
   vertex 0.17 -0.0125 -0.0433494
   vertex 0.17 0 -0.065
  endloop
 endfacet
 facet normal -1 0 -0
  outer loop
   vertex 0.17 -0.0191511 -0.0489303
   vertex 0.17 -0.0160697 -0.0458489
   vertex 0.17 0 -0.065
  endloop
 endfacet
 facet normal -1 0 -0
  outer loop
   vertex 0.17 -0.0216506 -0.0525
   vertex 0.17 -0.0191511 -0.0489303
   vertex 0.17 0 -0.065
  endloop
 endfacet
 facet normal -1 0 -0
  outer loop
   vertex 0.17 -0.0234923 -0.0564495
   vertex 0.17 -0.0216506 -0.0525
   vertex 0.17 0 -0.065
  endloop
 endfacet
 facet normal -1 0 -0
  outer loop
   vertex 0.17 -0.0246202 -0.0606588
   vertex 0.17 -0.0234923 -0.0564495
   vertex 0.17 0 -0.065
  endloop
 endfacet
 facet normal -1 0 -0
  outer loop
   vertex 0.17 -0.025 -0.065
   vertex 0.17 -0.0246202 -0.0606588
   vertex 0.17 0 -0.065
  endloop
 endfacet
 facet normal -1 0 0
  outer loop
   vertex 0.17 -0.0246202 -0.0693412
   vertex 0.17 -0.025 -0.065
   vertex 0.17 0 -0.065
  endloop
 endfacet
 facet normal -1 0 0
  outer loop
   vertex 0.17 -0.0234923 -0.0735505
   vertex 0.17 -0.0246202 -0.0693412
   vertex 0.17 0 -0.065
  endloop
 endfacet
 facet normal -1 0 0
  outer loop
   vertex 0.17 0 -0.065
   vertex 0.17 -0.0216506 -0.0775
   vertex 0.17 -0.0234923 -0.0735505
  endloop
 endfacet
 facet normal -1 0 0
  outer loop
   vertex 0.17 -0.0191511 -0.0810697
   vertex 0.17 -0.0216506 -0.0775
   vertex 0.17 0 -0.065
  endloop
 endfacet
 facet normal -1 0 0
  outer loop
   vertex 0.17 -0.0191511 -0.0810697
   vertex 0.17 0 -0.065
   vertex 0.17 -0.0160697 -0.0841511
  endloop
 endfacet
 facet normal -1 0 0
  outer loop
   vertex 0.17 -0.0125 -0.0866506
   vertex 0.17 -0.0160697 -0.0841511
   vertex 0.17 0 -0.065
  endloop
 endfacet
 facet normal -1 0 0
  outer loop
   vertex 0.17 -0.0085505 -0.0884923
   vertex 0.17 -0.0125 -0.0866506
   vertex 0.17 0 -0.065
  endloop
 endfacet
 facet normal -1 0 0
  outer loop
   vertex 0.17 -0.0043412 -0.0896202
   vertex 0.17 -0.0085505 -0.0884923
   vertex 0.17 0 -0.065
  endloop
 endfacet
 facet normal -1 0 0
  outer loop
   vertex 0.17 0 -0.09
   vertex 0.17 -0.0043412 -0.0896202
   vertex 0.17 0 -0.065
  endloop
 endfacet
endsolid
